<svg width="51" height="34" viewBox="0 0 51 34" fill="none" xmlns="http://www.w3.org/2000/svg">
<path d="M17.2637 7.74898H34.4482M17.2637 14.8517H34.4482M17.2637 21.9564H34.4482M46.7279 28.7034H4.3083V3.3848C4.3083 2.0672 5.3755 1 6.6931 1H44.3431C45.6607 1 46.7279 2.0672 46.7279 3.3848V28.7034ZM47.7752 33H2.98872C1.90562 33 1.02722 32.1216 1.02722 31.0385V28.7034H49.7387V31.0365C49.7387 32.1216 48.8603 33 47.7752 33ZM12.9333 9.74426H9.82315C9.41177 9.74426 9.07989 9.41038 9.07989 9.00099V6.49696C9.07989 6.08558 9.41376 5.7537 9.82315 5.7537H12.9353C13.3467 5.7537 13.6786 6.08757 13.6786 6.49696V9.00099C13.6786 9.41038 13.3447 9.74426 12.9333 9.74426ZM12.9333 16.847H9.82315C9.41177 16.847 9.07989 16.5131 9.07989 16.1037V13.5997C9.07989 13.1883 9.41376 12.8564 9.82315 12.8564H12.9353C13.3467 12.8564 13.6786 13.1903 13.6786 13.5997V16.1037C13.6786 16.5151 13.3447 16.847 12.9333 16.847ZM12.9333 23.9517H9.82315C9.41177 23.9517 9.07989 23.6178 9.07989 23.2084V20.7044C9.07989 20.293 9.41376 19.9611 9.82315 19.9611H12.9353C13.3467 19.9611 13.6786 20.295 13.6786 20.7044V23.2084C13.6786 23.6178 13.3447 23.9517 12.9333 23.9517ZM35.9883 16.5052L38.872 24.7486L40.279 20.7938L44.2318 19.3868L35.9883 16.5052Z" stroke="#0066A0" stroke-width="2" stroke-miterlimit="10"/>
</svg>
