<svg width="25" height="25" viewBox="0 0 25 25" fill="none" xmlns="http://www.w3.org/2000/svg">
<path d="M22.5941 16.4348C21.1118 16.4348 19.6294 16.223 18.2882 15.7289C17.5824 15.5172 16.8765 15.6583 16.3824 16.1525L13.6294 18.1995C10.5235 16.5054 8.47647 14.5289 6.85294 11.423L8.82941 8.74069C9.32353 8.24658 9.53529 7.47011 9.32353 6.83481C8.9 5.42305 8.61765 4.01128 8.61765 2.52893C8.61765 1.47011 7.77059 0.623047 6.71176 0.623047H2.40588C1.34706 0.623047 0.5 1.47011 0.5 2.52893C0.5 14.7407 10.4529 24.623 22.5941 24.623C23.6529 24.623 24.5 23.776 24.5 22.7172V18.3407C24.5 17.2819 23.6529 16.4348 22.5941 16.4348Z" fill="#D9D9D9"/>
</svg>
